name GIL08_static.mot
datacolumns 141
datarows 4
range 0.94166666 0.96666664
endheader

                time	           pelvis_tx	           pelvis_ty	           pelvis_tz	         pelvis_tilt	         pelvis_list	     pelvis_rotation	       hip_flexion_r	     hip_adduction_r	      hip_rotation_r	        knee_angle_r	       ankle_angle_r	    subtalar_angle_r	         mtp_angle_r	       hip_flexion_l	     hip_adduction_l	      hip_rotation_l	        knee_angle_l	       ankle_angle_l	    subtalar_angle_l	         mtp_angle_l	    lumbar_extension	      lumbar_bending	     lumbar_rotation	    ground_marker_px	    ground_marker_py	    ground_marker_pz	    ground_marker_px	    ground_marker_py	    ground_marker_pz	    ground_marker_px	    ground_marker_py	    ground_marker_pz	    ground_marker_px	    ground_marker_py	    ground_marker_pz	    ground_marker_px	    ground_marker_py	    ground_marker_pz	    ground_marker_px	    ground_marker_py	    ground_marker_pz	    ground_marker_px	    ground_marker_py	    ground_marker_pz	    ground_marker_px	    ground_marker_py	    ground_marker_pz	    ground_marker_px	    ground_marker_py	    ground_marker_pz	    ground_marker_px	    ground_marker_py	    ground_marker_pz	    ground_marker_px	    ground_marker_py	    ground_marker_pz	    ground_marker_px	    ground_marker_py	    ground_marker_pz	    ground_marker_px	    ground_marker_py	    ground_marker_pz	    ground_marker_px	    ground_marker_py	    ground_marker_pz	    ground_marker_px	    ground_marker_py	    ground_marker_pz	    ground_marker_px	    ground_marker_py	    ground_marker_pz	    ground_marker_px	    ground_marker_py	    ground_marker_pz	    ground_marker_px	    ground_marker_py	    ground_marker_pz	    ground_marker_px	    ground_marker_py	    ground_marker_pz	    ground_marker_px	    ground_marker_py	    ground_marker_pz	    ground_marker_px	    ground_marker_py	    ground_marker_pz	    ground_marker_px	    ground_marker_py	    ground_marker_pz	    ground_marker_px	    ground_marker_py	    ground_marker_pz	    ground_marker_px	    ground_marker_py	    ground_marker_pz	    ground_marker_px	    ground_marker_py	    ground_marker_pz	    ground_marker_px	    ground_marker_py	    ground_marker_pz	    ground_marker_px	    ground_marker_py	    ground_marker_pz	    ground_marker_px	    ground_marker_py	    ground_marker_pz	    ground_marker_px	    ground_marker_py	    ground_marker_pz	    ground_marker_px	    ground_marker_py	    ground_marker_pz	    ground_marker_px	    ground_marker_py	    ground_marker_pz	    ground_marker_px	    ground_marker_py	    ground_marker_pz	    ground_marker_px	    ground_marker_py	    ground_marker_pz	    ground_marker_px	    ground_marker_py	    ground_marker_pz	    ground_marker_px	    ground_marker_py	    ground_marker_pz	    ground_marker_px	    ground_marker_py	    ground_marker_pz	    ground_marker_px	    ground_marker_py	    ground_marker_pz	    ground_marker_px	    ground_marker_py	    ground_marker_pz	    ground_marker_px	    ground_marker_py	    ground_marker_pz	
          0.94166666	          0.77716887	          0.99699301	         -0.27458537	          9.97058392	          0.96259153	          1.44496369	        -11.06626892	         -4.13921213	         10.63796902	         -9.41610909	          9.62781334	          0.00000000	          0.00000000	        -10.30779648	         -3.62159729	          6.11148214	         -5.79228592	          5.91214752	          0.00000000	          0.00000000	        -22.63627052	         -2.22807550	         -1.03385019	          0.71062452	          0.91122258	         -0.26986933	          0.70941925	          0.89209884	         -0.22146310	          0.70679700	          0.89398259	         -0.32798412	          0.70227528	          0.47974613	         -0.19875273	          0.70372742	          0.48231521	         -0.36129019	          0.62487417	          0.07030547	         -0.17877606	          0.65566355	          0.06884366	         -0.35776433	          0.77716887	          0.99699301	         -0.27458537	          0.77979231	          0.99510843	         -0.16801922	          0.77454549	          0.99887758	         -0.38115150	          0.57445389	          1.00316608	         -0.22536828	          0.57068777	          1.00514722	         -0.31354612	          0.71476966	          0.48272935	         -0.14065592	          0.70862913	          0.48706076	         -0.42039773	          0.68866068	          0.50117195	         -0.25704330	          0.69185585	          0.49140492	         -0.31423131	          0.62301880	          0.07250491	         -0.14088516	          0.65179253	          0.06895845	         -0.39707404	          0.62169331	          0.07072740	         -0.20962432	          0.66332459	          0.07559312	         -0.32848877	          0.58019876	          0.04566576	         -0.19007508	          0.60996085	          0.04494813	         -0.35583997	          0.69063139	          1.39280331	         -0.28129855	          0.73485941	          1.19267190	         -0.28388509	          0.60145783	          1.46077359	         -0.28748560	          0.70423782	          1.39387167	         -0.19946565	          0.70186365	          1.39010179	         -0.35554263	          0.74517781	          0.04297635	         -0.18280646	          0.78320152	          0.04271852	         -0.37326214	          0.75388145	          0.60203969	         -0.06797967	          0.85035563	          0.62577057	         -0.36042231	          0.76422071	          0.66000396	         -0.14095208	          0.77526546	          0.68556958	         -0.39698592	          0.76095164	          0.57802624	         -0.16179499	          0.76539069	          0.59936213	         -0.39931005	          0.65316421	          0.14390221	         -0.07720247	          0.76888299	          0.17271033	         -0.35705435	          0.64343530	          0.20255274	         -0.13991727	          0.70363182	          0.22618002	         -0.36507881	
          0.94999999	          0.77716792	          0.99696350	         -0.27456218	          9.94279385	          0.97083086	          1.46891928	        -11.04257011	         -4.14872265	         10.62751579	         -9.40663338	          9.62239552	          0.00000000	          0.00000000	        -10.33353233	         -3.63554859	          6.16381025	         -5.67279625	          5.82547808	          0.00000000	          0.00000000	        -22.63284874	         -2.21520400	         -0.96918601	          0.71061134	          0.91122901	         -0.26979178	          0.70939016	          0.89209330	         -0.22142860	          0.70672476	          0.89399523	         -0.32794824	          0.70223039	          0.47973514	         -0.19871622	          0.70325696	          0.48231924	         -0.36141586	          0.62486672	          0.07025285	         -0.17876641	          0.65561724	          0.06882117	         -0.35778266	          0.77716792	          0.99696350	         -0.27456218	          0.77983415	          0.99506092	         -0.16800770	          0.77450174	          0.99886608	         -0.38111663	          0.57450557	          1.00323963	         -0.22522411	          0.57069087	          1.00520611	         -0.31341827	          0.71473807	          0.48271775	         -0.14062223	          0.70819253	          0.48708254	         -0.42051917	          0.68856585	          0.50115687	         -0.25699997	          0.69135833	          0.49143082	         -0.31434125	          0.62301952	          0.07244790	         -0.14087486	          0.65176731	          0.06891930	         -0.39709446	          0.62167126	          0.07064672	         -0.20957783	          0.66330963	          0.07554778	         -0.32852644	          0.58019662	          0.04564085	         -0.19004656	          0.60998642	          0.04488452	         -0.35584214	          0.69079542	          1.39270997	         -0.28137383	          0.73492849	          1.19256008	         -0.28414887	          0.60154772	          1.46078646	         -0.28749061	          0.70452183	          1.39372098	         -0.19958709	          0.70191801	          1.39004993	         -0.35560918	          0.74518156	          0.04295083	         -0.18281147	          0.78326273	          0.04256302	         -0.37316737	          0.75388312	          0.60201854	         -0.06795564	          0.84998518	          0.62564802	         -0.36042154	          0.76426101	          0.65995061	         -0.14096817	          0.77502561	          0.68552536	         -0.39702526	          0.76092738	          0.57799798	         -0.16177891	          0.76506621	          0.59930706	         -0.39935920	          0.65318996	          0.14386271	         -0.07718311	          0.76874900	          0.17283395	         -0.35712695	          0.64347214	          0.20243043	         -0.13985422	          0.70342100	          0.22618981	         -0.36516219	
          0.95833331	          0.77717149	          0.99690604	         -0.27456474	          9.91146469	          0.97716278	          1.50242674	        -11.01680279	         -4.15684271	         10.61267853	         -9.39238644	          9.61211872	          0.00000000	          0.00000000	        -10.35116768	         -3.64845610	          6.22016287	         -5.55940962	          5.70670938	          0.00000000	          0.00000000	        -22.68412399	         -2.08852482	         -0.85438102	          0.71058524	          0.91116840	         -0.26979747	          0.70936823	          0.89206523	         -0.22140564	          0.70664209	          0.89398265	         -0.32792348	          0.70218700	          0.47970435	         -0.19868949	          0.70280445	          0.48229888	         -0.36153445	          0.62488407	          0.07016089	         -0.17877029	          0.65557849	          0.06877432	         -0.35779759	          0.77717149	          0.99690604	         -0.27456474	          0.77989823	          0.99498814	         -0.16802210	          0.77444470	          0.99882394	         -0.38110739	          0.57460195	          1.00328612	         -0.22505909	          0.57069224	          1.00525916	         -0.31329352	          0.71471328	          0.48268628	         -0.14059946	          0.70776778	          0.48707765	         -0.42063418	          0.68849146	          0.50110853	         -0.25700518	          0.69102222	          0.49127662	         -0.31446710	          0.62304801	          0.07235044	         -0.14087789	          0.65174574	          0.06885678	         -0.39711115	          0.62165201	          0.07052111	         -0.20948163	          0.66332495	          0.07545895	         -0.32855886	          0.58019477	          0.04560111	         -0.19002320	          0.60994238	          0.04486413	         -0.35584041	          0.69100118	          1.39242792	         -0.28145349	          0.73481840	          1.19221854	         -0.28485930	          0.60162348	          1.46080089	         -0.28749046	          0.70489860	          1.39319670	         -0.19972895	          0.70196575	          1.38995171	         -0.35568291	          0.74519682	          0.04290691	         -0.18281850	          0.78334749	          0.04234773	         -0.37304440	          0.75390834	          0.60197288	         -0.06794981	          0.84965098	          0.62552178	         -0.36044037	          0.76430178	          0.65985864	         -0.14099464	          0.77467352	          0.68539894	         -0.39707139	          0.76091790	          0.57791448	         -0.16180135	          0.76474017	          0.59920371	         -0.39942852	          0.65323937	          0.14380521	         -0.07716958	          0.76863778	          0.17291500	         -0.35719052	          0.64366281	          0.20228991	         -0.13983826	          0.70323950	          0.22613330	         -0.36524397	
          0.96666664	          0.77717930	          0.99683666	         -0.27458838	          9.88026428	          0.98260057	          1.54302168	        -10.99395370	         -4.16478157	         10.59690285	         -9.37227440	          9.59692955	          0.00000000	          0.00000000	        -10.36491013	         -3.65930414	          6.27717304	         -5.45350361	          5.58416367	          0.00000000	          0.00000000	        -22.72319794	         -2.05980277	         -0.89112622	          0.71054757	          0.91103673	         -0.26992485	          0.70935768	          0.89202559	         -0.22139415	          0.70655757	          0.89395732	         -0.32790980	          0.70213872	          0.47966722	         -0.19867001	          0.70237595	          0.48226836	         -0.36164457	          0.62491983	          0.07005686	         -0.17878304	          0.65554208	          0.06871779	         -0.35781285	          0.77717930	          0.99683666	         -0.27458838	          0.77997988	          0.99490458	         -0.16805594	          0.77437872	          0.99876881	         -0.38112080	          0.57475984	          1.00330269	         -0.22486743	          0.57068884	          1.00531459	         -0.31317118	          0.71469003	          0.48264837	         -0.14058536	          0.70736021	          0.48706028	         -0.42074150	          0.68842655	          0.50105309	         -0.25702029	          0.69073069	          0.49102870	         -0.31463331	          0.62309879	          0.07223992	         -0.14088954	          0.65172189	          0.06878616	         -0.39712763	          0.62164336	          0.07041433	         -0.20940006	          0.66340482	          0.07535361	         -0.32858759	          0.58019525	          0.04556074	         -0.19000474	          0.60983002	          0.04489786	         -0.35583943	          0.69105047	          1.39230847	         -0.28154156	          0.73462486	          1.19204748	         -0.28503793	          0.60170305	          1.46083105	         -0.28748080	          0.70494670	          1.39302218	         -0.19985689	          0.70201415	          1.38985348	         -0.35573155	          0.74521905	          0.04285775	         -0.18282574	          0.78341359	          0.04216547	         -0.37296474	          0.75395006	          0.60191596	         -0.06796117	          0.84935248	          0.62540537	         -0.36047983	          0.76435530	          0.65975899	         -0.14101300	          0.77426088	          0.68524790	         -0.39708424	          0.76091975	          0.57780200	         -0.16183023	          0.76437938	          0.59908861	         -0.39951235	          0.65330142	          0.14374314	         -0.07716250	          0.76854026	          0.17297131	         -0.35725036	          0.64395344	          0.20216142	         -0.13983853	          0.70305967	          0.22603953	         -0.36528990	
